<svg xmlns="http://www.w3.org/2000/svg" viewBox="0 0 800 800"><defs><style>.cls-1,.cls-16{fill:#333;}.cls-12,.cls-13,.cls-17,.cls-2{fill:#fff;}.cls-3{fill:#ffca5f;}.cls-4{fill:#ccc;}.cls-5{font-size:46.98px;}.cls-5,.cls-7,.cls-9{fill:#403939;}.cls-16,.cls-17,.cls-5,.cls-7,.cls-9{font-family:CenturyGothic, Century Gothic;}.cls-6{font-family:AdobeSongStd-Light-GBpc-EUC-H, Adobe Song Std;}.cls-7{font-size:45.03px;letter-spacing:-0.1em;}.cls-8{letter-spacing:0em;}.cls-9{font-size:41.61px;}.cls-10,.cls-14{fill:none;}.cls-10{stroke:#fc3;stroke-width:7px;}.cls-10,.cls-12,.cls-13,.cls-14,.cls-15{stroke-miterlimit:10;}.cls-11,.cls-15{fill:#fbcc34;}.cls-12{stroke:#fff;}.cls-13,.cls-14,.cls-15{stroke:#fbcc34;}.cls-16{font-size:39.82px;}.cls-17{font-size:50px;}.cls-18{letter-spacing:0em;}</style></defs><title>create post</title><g id="Layer_1" data-name="Layer 1"><rect class="cls-1" x="1.5" y="-0.5" width="800" height="800"/></g><g id="Layer_2" data-name="Layer 2"><rect class="cls-2" x="296.28" y="191.08" width="403.72" height="414.17"/><path class="cls-3" d="M202.72,428c.28,11.17-7.83,18.74-19.08,18.66S164.18,439.16,164.4,428s8.27-18.77,19.17-18.78S202.45,416.86,202.72,428Z"/><rect class="cls-4" x="344.57" y="326.29" width="51.34" height="51.34"/><rect class="cls-4" x="344.57" y="406.97" width="51.34" height="51.34"/><rect class="cls-4" x="344.57" y="487.65" width="51.34" height="51.34"/><text class="cls-5" transform="translate(416.29 368.86)">Pianist</text><text class="cls-5" transform="translate(349.29 282.86)">I want<tspan class="cls-6" x="139.34" y="0">：</tspan></text><text class="cls-7" transform="translate(416.29 453.08)">V<tspan class="cls-8" x="27.06" y="0">ocalist</tspan></text><text class="cls-9" transform="translate(416.29 527.83)">Drummer</text><polyline class="cls-10" points="353.73 507.82 374.52 527.38 416.08 463.81"/><polyline class="cls-10" points="349.73 433.12 370.52 452.68 412.08 389.12"/><path class="cls-3" d="M157.53,451.72c1.6,43.72,1.46,105,1.54,148.75,7.67,8.61,13.29,7.23,21.52,0q0-34.41,0-68.84h8.22q0,34.43,0,68.86c8.1,8.74,13.43,8.76,21.51,0-.09-43.39,0-105.39-.07-148.78Z"/><path class="cls-3" d="M166.07,466.16l-14.39-70.74s-8.77-11.89-13.16,2.79l14.27,70.12Z"/><path class="cls-3" d="M216.31,469.74l10.23-73.93s-4.15-14.18-13.31-1.9l-10.14,73.3Z"/><rect class="cls-2" x="102.63" y="251" width="172.37" height="144.04" rx="12.93" ry="12.93"/><path class="cls-11" d="M182.05,342.16a33,33,0,1,1-2.18-11.71A33.34,33.34,0,0,1,182.05,342.16Z"/><path class="cls-12" d="M182.05,342.16a10.23,10.23,0,0,1-1.9,2.2s-3.24,2-4.38,1.56-3.58.9-3.58.9-2,1.26-3,5-1.6,8-4.44,13.6-3.26,6.17-3.26,6.17-3.21-1.57-4.48-1.08c0,0-2.18-.51-5.64,2.93l-.68,1.79a32.74,32.74,0,0,1-12.66-1.82l2.55-2.89s.86-.18,0-2.47a30.44,30.44,0,0,1-2.43-3.07c-.5-.89-2.07-2.14.41-4.5a24.16,24.16,0,0,0,3.17-3.39l-1.64-1.84s-2.83,1.87-3.94.61S134.45,353,135,352c0,0,.16-1.56,3.82-3.73,0,0,2-1.27,3.33-.09s2.51,1.46.67,4.79l1,2.21,6.56-6.27a3.16,3.16,0,0,0-1-1.29c-.66-.45-3.08,1.47-3.75.82,0,0-1.61.2-2.47-2.2,0,0-.52-.78.4-2.4a7.73,7.73,0,0,1,5.75-4.34s2.87-.2,2.88,3.44c0,0-1,1.87-.9,2.18s.82,2.13.82,2.13l7-6.49a10.15,10.15,0,0,0-1.28-1.47c-.25-.11-3,1.22-4,.78a3.17,3.17,0,0,1-2.32-3.45l.44-1.23s.64-1.79,3.65-3.59a3.85,3.85,0,0,1,4.17.07c2,1.45-.21,5.06-.21,5.06l1.15,2.22,6.84-6.59s-1.32-1.59-1.7-1.65-2.77,1.35-3.07,1.12-2.47-.22-2.64-2.45c0,0-.27-1.74,2-4.18a6.85,6.85,0,0,1,4.81-2.38s4.34,1.19,1.63,5.08l.87,3a27.11,27.11,0,0,1,5.09-2.26,6.72,6.72,0,0,1,5.35,1.66A33.34,33.34,0,0,1,182.05,342.16Z"/><circle class="cls-11" cx="145.97" cy="361.73" r="2.38"/><circle class="cls-11" cx="154.84" cy="352.74" r="2.38"/><circle class="cls-11" cx="164.26" cy="344.28" r="2.38"/><circle class="cls-11" cx="173.34" cy="335.05" r="2.38"/><path class="cls-11" d="M245.19,318.34l7.25,7.93a30.37,30.37,0,0,1,1.56,2.66,32.36,32.36,0,0,1,2.3,5.56,33,33,0,0,1,1.26,6,32.63,32.63,0,0,1-.07,8.15c-.05.39-.11.78-.17,1.16a33,33,0,0,1-28.8,27.26c-.38.05-.77.09-1.15.12-1,.08-2,.11-3,.1a32.9,32.9,0,0,1-15.46-4.05l-1.54-1.69-.52.47a33.07,33.07,0,0,1-12.38-14.58c-.29-.66-.56-1.33-.8-2a33,33,0,0,1,45-41.12A33.21,33.21,0,0,1,245.19,318.34Z"/><path class="cls-13" d="M193.87,355.25c.24.68.51,1.35.8,2A33,33,0,0,0,207,371.78l.51-.46,1.54,1.68a32.66,32.66,0,0,0,15.37,4.06c1,0,2,0,3-.1l11-10-26.08-28.53Z"/><path class="cls-14" d="M207.52,371.32l1.54,1.68c-.7-.38-1.38-.79-2.05-1.22Z"/><path class="cls-14" d="M194.67,357.26l12.85,14.06-.51.46A33,33,0,0,1,194.67,357.26Z"/><path class="cls-14" d="M206,344.15l26.09,28.53L227.41,377c-1,.08-2,.11-3,.1L199.66,350Z"/><rect class="cls-13" x="224.2" y="330.44" width="8.61" height="38.66" transform="translate(-176.15 245.8) rotate(-42.43)"/><path class="cls-15" d="M195.28,354l14.22,15.55L207,371.78a33,33,0,0,1-12.34-14.52c-.29-.66-.56-1.33-.8-2Z"/><rect class="cls-15" x="210.31" y="341.33" width="5.76" height="21.06" transform="translate(-181.57 236.01) rotate(-42.43)"/><rect class="cls-15" x="216.52" y="335.65" width="5.76" height="21.06" transform="translate(-176.11 238.71) rotate(-42.43)"/><path class="cls-13" d="M238.5,314.45,225,326.81l26.08,28.53,6.07-5.54c.06-.38.12-.77.17-1.15a32.33,32.33,0,0,0,.05-8.11A33.15,33.15,0,0,0,253.79,329q-.72-1.36-1.56-2.64l-7.22-7.9A33.46,33.46,0,0,0,238.5,314.45Z"/><path class="cls-14" d="M252.23,326.37l-7.22-7.9A32.76,32.76,0,0,1,252.23,326.37Z"/><rect class="cls-15" x="235.94" y="317.9" width="5.76" height="21.06" transform="translate(-159.05 247.17) rotate(-42.43)"/><path class="cls-14" d="M238.07,314.85l18,19.7a32.68,32.68,0,0,1,1.27,6,32.33,32.33,0,0,1-.05,8.11l-25.59-28Z"/><rect class="cls-13" x="230.56" y="324.63" width="8.61" height="38.66" transform="translate(-170.56 248.57) rotate(-42.43)"/><path class="cls-11" d="M245,318.47l7.22,7.9q.84,1.28,1.56,2.64L250,332.47,235.8,316.92l2.7-2.47A33.46,33.46,0,0,1,245,318.47Z"/><rect class="cls-15" x="229.47" y="323.81" width="5.76" height="21.06" transform="translate(-164.73 244.35) rotate(-42.43)"/><text class="cls-16" transform="translate(134.02 295.23)"><tspan xml:space="preserve">I  can</tspan></text><text class="cls-17" transform="translate(259.84 781.99)">c<tspan class="cls-18" x="32.35" y="0">r</tspan><tspan x="47.19" y="0">eate post</tspan></text></g></svg>