<svg xmlns="http://www.w3.org/2000/svg" viewBox="0 0 800 800"><defs><style>.cls-1{fill:#333;}.cls-2{fill:#ffca5f;}.cls-3{font-size:50px;fill:#fff;font-family:CenturyGothic, Century Gothic;}.cls-4{letter-spacing:0em;}.cls-5{fill:#fc3;stroke:#fff;stroke-miterlimit:10;stroke-width:5px;}</style></defs><title>wait for request</title><g id="Layer_1" data-name="Layer 1"><rect class="cls-1" x="1.5" y="-0.5" width="800" height="800"/></g><g id="Layer_2" data-name="Layer 2"><path class="cls-2" d="M435.72,474.31c.28,11.17-7.83,18.74-19.08,18.66s-19.46-7.53-19.24-18.68,8.27-18.78,19.17-18.79S435.45,463.14,435.72,474.31Z"/><path class="cls-2" d="M390.53,498c1.6,43.72,1.46,105,1.54,148.76,7.67,8.6,13.29,7.22,21.52,0q0-34.42,0-68.85h8.22q0,34.44,0,68.86c8.1,8.74,13.43,8.77,21.51,0-.09-43.4,0-105.39-.07-148.79Z"/><path class="cls-2" d="M403,505.19l-46.33-55.37s-13.37-6.28-10.25,8.71l45.92,54.89Z"/><path class="cls-2" d="M441.33,516.81l46.41-58.46s3.64-14.31-10.5-8.41l-46,58Z"/><text class="cls-3" transform="translate(159.92 788.99)">wait for <tspan class="cls-4" x="193.82" y="0">r</tspan><tspan x="208.67" y="0">equest to join</tspan></text><rect class="cls-5" x="266.5" y="119.5" width="145.8" height="95.52" rx="5.59" ry="5.59"/><path class="cls-5" d="M270.07,126.7,336,173.88a6.81,6.81,0,0,0,6.48-.54L409,126.15c2.52-1.78,1.38-6.09-1.61-6.09H271.7C268.72,120.06,267.57,124.36,270.07,126.7Z"/><line class="cls-5" x1="268.7" y1="213.88" x2="313.02" y2="157.43"/><line class="cls-5" x1="409.1" y1="214.55" x2="364.77" y2="158.11"/><rect class="cls-5" x="443.2" y="194.16" width="145.8" height="95.52" rx="5.59" ry="5.59"/><path class="cls-5" d="M446.77,201.36l66,47.18a6.81,6.81,0,0,0,6.48-.55l66.46-47.18c2.52-1.78,1.38-6.09-1.61-6.09H448.4C445.42,194.72,444.27,199,446.77,201.36Z"/><line class="cls-5" x1="445.4" y1="288.53" x2="489.72" y2="232.09"/><line class="cls-5" x1="585.8" y1="289.21" x2="541.47" y2="232.76"/><rect class="cls-5" x="337.57" y="319.5" width="145.8" height="95.52" rx="5.59" ry="5.59"/><path class="cls-5" d="M341.14,326.7l65.95,47.18a6.81,6.81,0,0,0,6.48-.55L480,326.15c2.52-1.78,1.38-6.09-1.61-6.09H342.76C339.79,320.06,338.64,324.35,341.14,326.7Z"/><line class="cls-5" x1="339.77" y1="413.87" x2="384.09" y2="357.43"/><line class="cls-5" x1="480.17" y1="414.55" x2="435.84" y2="358.1"/></g></svg>