<svg xmlns="http://www.w3.org/2000/svg" viewBox="0 0 800 800"><defs><style>.cls-1{fill:#333;}.cls-2{font-size:50px;font-family:CenturyGothic, Century Gothic;}.cls-2,.cls-4{fill:#fff;}.cls-3{fill:#ffca5f;}</style></defs><title>jam</title><g id="Layer_1" data-name="Layer 1"><rect class="cls-1" x="1.5" y="-0.5" width="800" height="800"/></g><g id="Layer_2" data-name="Layer 2"><text class="cls-2" transform="translate(332.19 785.3)">JAM !</text><path class="cls-3" d="M435.34,411.72c.29,11.92-8.36,20-20.38,19.92s-20.77-8-20.54-19.95,8.83-20.05,20.47-20.06S435.05,399.79,435.34,411.72Z"/><path class="cls-3" d="M266.63,418.12c.29,11.93-8.37,20-20.38,19.93s-20.78-8-20.54-20,8.83-20,20.47-20S266.33,406.19,266.63,418.12Z"/><path class="cls-3" d="M626.47,392.8c.3,11.93-8.36,20-20.38,19.92s-20.77-8-20.54-20,8.84-20,20.48-20.06S626.18,380.87,626.47,392.8Z"/><path class="cls-3" d="M578.22,418.09c1.71,46.69,1.56,112.13,1.64,158.84,8.19,9.19,14.2,7.71,23,0q0-36.75,0-73.51h8.77q0,36.77,0,73.53c8.65,9.33,14.34,9.36,23,0-.1-46.34,0-112.53-.08-158.87Z"/><path class="cls-3" d="M218.37,440.51c1.71,36.37,1.56,87.34,1.65,123.72,8.18,7.15,14.19,6,23,0q0-28.63,0-57.26h8.77q0,28.63.05,57.27c8.65,7.27,14.33,7.29,23,0-.1-36.09,0-87.64-.08-123.74Z"/><path class="cls-3" d="M444.94,456.05c22.58-13.7,45.88-26.1,69.19-38.51,4.47-7.68,1.46-11-6.69-12.7-23.37,12.44-46.73,24.85-69.37,38.58Z"/><polygon class="cls-3" points="396.13 435.18 373.7 481.09 388.65 484.29 402.53 453.33 396.13 435.18"/><path class="cls-3" d="M498.1,567.05l-46-49.09c0-27.62,0-55.23-.36-82.85-18.72-.32-37.44,0-56.16.06.94,27.88,1.32,55.77,1.48,83.65l-25,24.74,27.76,36.3s19.22,14.95,21.36-11.74l-20.29-24.56,22.49-23,54.39,57.13S500.24,590.54,498.1,567.05Z"/><path class="cls-4" d="M365.65,472.06s-4.22,11.88,9.69,8.38l15.37-17.77s2.83-13.07-9.7-8.38Z"/><path class="cls-4" d="M369.23,461.39,479,555.63l-8.63,27.12,3.17,2,34.93-40.38-2.43-2.1L480.42,554l-109-94.29S367.45,457.74,369.23,461.39Z"/><path class="cls-4" d="M161.44,413.84,162,558.53l-26.16,11.21.54,3.74h53.39v-3.21l-25.63-11.74V414.38S163,410.11,161.44,413.84Z"/><path class="cls-4" d="M307.73,495.18l.53,71-26.16,5.49.54,1.84H336v-1.57l-25.62-5.76V495.44A1.49,1.49,0,0,0,307.73,495.18Z"/><ellipse class="cls-3" cx="377.44" cy="476.29" rx="8.01" ry="5.87"/><path class="cls-3" d="M635.19,417.82l-12.52,6,22.74,35.86c4.23-2.37,8.64-4.95,12.43-7.21C646.79,435,635.19,417.82,635.19,417.82Z"/><path class="cls-4" d="M626.58,468c-.42-.83-.46-5.24,1.38-6.7,4.27-3.38,7.47-6.31,5.44-7-2.88-.93-8.12.54-8.12.54-14.3,2.51-18.07,9.22-18.52,13.05s-8.09,2.93-8.09,2.93-42.09-7.31-23.15,32.17,32.53,7.39,32.53,7.39,2.3-12,11.4-8.21,18.09-6.83,18.09-6.83,9-15.35-.56-10.5-11.52-7.31-11.52-7.31l21.39-11.2-3.57-5.64C634.89,465.43,627.22,469.26,626.58,468Z"/><path class="cls-4" d="M676.45,450.5s3.38,4.28,4.33,3.79,1.29-13.39-1.1-18.62c-1.44-3.13-2.32-3-4.06.28-.64,1.19-2.33,7.18-2.33,7.18s-11.81,7-17.58,10.4l3.9,6.15Z"/><path class="cls-4" d="M655.71,453.53c-3.79,2.26-8.2,4.84-12.43,7.2l3.57,5.64,12.76-6.69Z"/><path class="cls-3" d="M578.19,417.56,544,463.47,578.19,488s23.49,4.27,7.47-13.88L565.37,459.2l18.16-22.42Z"/><path class="cls-3" d="M230.62,451.19l-22.51,37.15-31.53-20.25s-12.73-18.3,6.77-11.12l19,11.89,16.54-28.35Z"/><path class="cls-3" d="M265.5,452.86l22.9,31.56,26-23.54s9.61-19-6.89-9.44l-15.64,13.89L274.9,441.15Z"/><ellipse class="cls-3" cx="659.34" cy="462.94" rx="10.14" ry="7.47"/><polygon class="cls-4" points="633.18 455.46 627.26 455.46 620.36 418.09 626.28 418.09 633.18 455.46"/><polygon class="cls-4" points="118.5 430.9 161.71 421.17 207.13 430.9 163.35 442.65 118.5 430.9"/><circle class="cls-4" cx="246.64" cy="530.21" r="45.92"/><path class="cls-4" d="M285.08,470.67v20.1s24.56,10.05,47-5.48v-21S306.43,457,285.08,470.67Z"/><path class="cls-4" d="M282.94,471.58s18.15-15.53,51.25-7.31v.92s-42.71,9.13-51.25,7.3Z"/><path class="cls-4" d="M333.51,485.66s-18.87,16.89-49.7,5.41l.09-1.05s41.72-8,49.7-5.41Z"/><rect class="cls-4" x="161.21" y="407.41" width="3.2" height="61.93" transform="translate(-225.9 178.4) rotate(-35.85)"/><rect class="cls-4" x="322.45" y="401.01" width="3.2" height="61.93" transform="translate(259.4 -104.15) rotate(30)"/><polygon class="cls-4" points="240.23 246.18 290.42 317.72 305.36 309.18 265.86 231.23 240.23 246.18"/><polygon class="cls-4" points="339.53 235.5 350.21 285.68 356.62 285.68 356.62 235.5 339.53 235.5"/><polygon class="cls-4" points="421.75 215.21 400.4 288.89 411.08 288.89 442.04 229.09 421.75 215.21"/><polygon class="cls-4" points="458.06 270.73 444.18 301.7 450.58 301.7 483.69 258.99 463.4 252.58 458.06 270.73"/><polygon class="cls-4" points="534.58 272.99 498.13 324.64 507.19 327.86 562.85 260.36 545.16 249.55 534.58 272.99"/></g></svg>