<svg xmlns="http://www.w3.org/2000/svg" viewBox="0 0 150.5 150.5"><defs><style>.cls-1{fill:#fbcc34;}.cls-2{fill:#fff;stroke:#fff;stroke-miterlimit:10;}</style></defs><title>bass icon</title><g id="Layer_2" data-name="Layer 2"><g id="Layer_2-2" data-name="Layer 2"><path class="cls-1" d="M150,74.76a75,75,0,1,1-5-26.59A75.64,75.64,0,0,1,150,74.76Z"/><path class="cls-2" d="M150,74.76a23.11,23.11,0,0,1-4.32,5s-7.36,4.45-9.94,3.54-8.14,2-8.14,2-4.46,2.85-6.73,11.38-3.62,18.18-10.09,30.88-7.38,14-7.38,14-7.31-3.56-10.18-2.44c0,0-5-1.15-12.82,6.65l-1.54,4.08a74.81,74.81,0,0,1-28.75-4.14l5.79-6.58s2-.4-.07-5.6a70.32,70.32,0,0,1-5.53-7c-1.13-2-4.7-4.85,1-10.21s7.19-7.71,7.19-7.71l-3.72-4.17s-6.43,4.25-8.95,1.37-3.88-6.51-2.54-8.8c0,0,.35-3.55,8.67-8.46,0,0,4.6-2.9,7.55-.22S65.16,91.71,61,99.28l2.26,5L78.12,90.06a7.1,7.1,0,0,0-2.26-2.94c-1.51-1-7,3.35-8.52,1.87,0,0-3.64.47-5.6-5,0,0-1.17-1.78.91-5.45a17.56,17.56,0,0,1,13.06-9.86s6.51-.46,6.54,7.82c0,0-2.33,4.25-2.06,4.94l1.88,4.85L97.86,71.56s-2.31-3.1-2.89-3.35S88.23,71,85.93,70s-5.27-2.1-5.27-7.84l1-2.78s1.46-4.08,8.3-8.16c0,0,4.83-3.15,9.46.15s-.47,11.5-.47,11.5l2.6,5.05,15.54-15s-3-3.62-3.85-3.76-6.3,3.08-7,2.55-5.61-.49-6-5.55c0,0-.62-4,4.45-9.51a15.64,15.64,0,0,1,10.94-5.4s9.86,2.71,3.7,11.54l2,6.72s6.91-4,11.55-5.13c2.82-.71,7.75.19,12.15,3.78A75.64,75.64,0,0,1,150,74.76Z"/><circle class="cls-1" cx="68.05" cy="119.2" r="5.42"/><circle class="cls-1" cx="88.21" cy="98.79" r="5.42"/><circle class="cls-1" cx="109.59" cy="79.57" r="5.42"/><circle class="cls-1" cx="130.22" cy="58.6" r="5.42"/></g></g></svg>