<svg xmlns="http://www.w3.org/2000/svg" viewBox="0 0 150.06 150.01"><defs><style>.cls-1,.cls-4{fill:#fbcc34;}.cls-2{fill:#fff;}.cls-2,.cls-3,.cls-4{stroke:#fbcc34;stroke-miterlimit:10;}.cls-3{fill:none;}</style></defs><title>piano icon</title><g id="Layer_2" data-name="Layer 2"><g id="Layer_2-2" data-name="Layer 2"><path class="cls-1" d="M121.43,16.1l16.46,18c1.27,1.95,2.45,4,3.54,6a73.52,73.52,0,0,1,5.22,12.64,74.71,74.71,0,0,1,2.87,13.67A75.88,75.88,0,0,1,149.37,85c-.12.88-.26,1.76-.41,2.63a75,75,0,0,1-65.4,61.92c-.87.1-1.74.19-2.61.25q-3.44.28-6.82.24A74.67,74.67,0,0,1,39,140.82L35.51,137,34.35,138A75.14,75.14,0,0,1,6.22,104.93c-.66-1.5-1.26-3-1.82-4.58A75.08,75.08,0,0,1,66.45.5,74.49,74.49,0,0,1,106.56,7,75.58,75.58,0,0,1,121.43,16.1Z"/><path class="cls-2" d="M4.86,99.93c.55,1.55,1.16,3.07,1.81,4.56a75.06,75.06,0,0,0,28,33l1.15-1.06,3.51,3.84a74.31,74.31,0,0,0,34.91,9.21q3.36,0,6.78-.22l24.89-22.76L46.7,61.68Z"/><path class="cls-3" d="M35.85,136.41l3.51,3.84q-2.38-1.31-4.66-2.78Z"/><path class="cls-3" d="M6.67,104.49l29.18,31.92-1.15,1.06A75.06,75.06,0,0,1,6.67,104.49Z"/><path class="cls-3" d="M32.44,74.72l59.24,64.79-10.63,9.73q-3.42.27-6.78.22L18,87.91Z"/><rect class="cls-2" x="73.76" y="43.59" width="19.56" height="87.8" transform="translate(-37.15 79.28) rotate(-42.43)"/><path class="cls-4" d="M8.07,97l32.28,35.31-5.65,5.16a75.06,75.06,0,0,1-28-33c-.65-1.49-1.26-3-1.81-4.56Z"/><rect class="cls-4" x="42.2" y="68.31" width="13.07" height="47.84" transform="translate(-49.47 57.04) rotate(-42.43)"/><rect class="cls-4" x="56.3" y="55.42" width="13.07" height="47.84" transform="translate(-37.07 63.18) rotate(-42.43)"/><path class="cls-2" d="M106.22,7.27,75.52,35.34l59.23,64.79,13.78-12.59c.15-.86.28-1.74.4-2.61a75.42,75.42,0,0,0-2.77-32A72.55,72.55,0,0,0,141,40.34q-1.62-3.11-3.53-6L121,16.39A75.44,75.44,0,0,0,106.22,7.27Z"/><path class="cls-3" d="M137.42,34.32,121,16.39A75.35,75.35,0,0,1,137.42,34.32Z"/><rect class="cls-4" x="100.41" y="15.09" width="13.07" height="47.84" transform="translate(1.69 82.38) rotate(-42.43)"/><path class="cls-3" d="M105.24,8.16l40.92,44.76a75.42,75.42,0,0,1,2.77,32L90.81,21.36Z"/><rect class="cls-2" x="88.19" y="30.39" width="19.56" height="87.8" transform="translate(-24.46 85.56) rotate(-42.43)"/><path class="cls-1" d="M121,16.39l16.4,17.93q1.91,2.91,3.53,6l-8.58,7.84L100.09,12.87l6.13-5.6A75.44,75.44,0,0,1,121,16.39Z"/><rect class="cls-4" x="85.71" y="28.53" width="13.07" height="47.84" transform="translate(-11.23 75.98) rotate(-42.43)"/></g></g></svg>