<svg xmlns="http://www.w3.org/2000/svg" viewBox="0 0 150 150.5"><defs><style>.cls-1{fill:#fbcc34;}.cls-2{fill:#fff;stroke:#fff;stroke-miterlimit:10;}</style></defs><title>trumpet icon</title><g id="Layer_2" data-name="Layer 2"><g id="Layer_2-2" data-name="Layer 2"><path class="cls-1" d="M127.91,128.15a74.27,74.27,0,0,1-36.31,20c-1.63.38-3.29.7-4.95.94a73.58,73.58,0,0,1-15,.84,74.85,74.85,0,0,1-42.43-15.53,76.76,76.76,0,0,1-7.33-6.47,75,75,0,1,1,106.06.23Z"/><path class="cls-2" d="M143.38,53.09c-4.76-7.65-13.27-15.67-13.27-15.67-7.58-8.49-21-16.68-21-16.68s-4.5-1.19-1.51,6.51-2.91,19.21-3.32,21.5S93.81,63.2,93.81,63.2L78,82.19,35.35,125.83l.34,2-2.12.5-1.29-3.45-4.22-2.69.82-3.17-3.71,0-4.28,4.2.51,2.92,2.65-.77,2.6,5.06,3.17,1.09-.64,2.89a74.53,74.53,0,0,0,25.7,12.87L42,134.27,82.93,94.92l21.25,22.21L71.61,149.92a73.58,73.58,0,0,0,15-.84l29.16-28.4,0,4.25L91.6,148.14a74.57,74.57,0,0,0,13.46-4.4l13.57-13.22c9.35-7.33,3.05-14,3.05-14l6.17-7.62c7.06-16.36-8.74-27.65-8.74-27.65l-9.73-7.79L121.2,65s11.88-7.74,22.1-3.17S143.38,53.09,143.38,53.09ZM108.6,114.52,86.67,92l5.89-5.78,22,23Zm11.69-17.38s1.79,5.85-.09,8.48-2.38,0-2.38,0L96.56,83.12s2.17-4.21,5.6-2.86S119,90,120.29,97.14Z"/></g></g></svg>